<svg xmlns="http://www.w3.org/2000/svg" xml:space="preserve" width="110" height="110" version="1.0" id="cloudy">
  <path fill="#FBEC9A" d="m62.72 44-5.923 3.699 3.282 6.165-6.982.234-.234 6.981-6.164-3.282L43 63.72l-3.699-5.923-6.165 3.282-.234-6.982-6.981-.234 3.282-6.164L23.28 44l5.923-3.699-3.282-6.165 6.982-.234.234-6.981 6.164 3.282L43 24.28l3.699 5.923 6.165-3.282.234 6.982 6.981.234-3.282 6.164z"></path>
  <circle cx="43" cy="44" r="12" fill="#FACB1B"></circle>
  <path fill="#F0F1F1" d="M87 58c0-4.898-3.524-8.967-8.174-9.826C76.552 42.784 71.218 39 65 39c-5.415 0-10.145 2.879-12.782 7.179A11.437 11.437 0 0 0 45.5 44c-5.243 0-9.658 3.512-11.042 8.31C28.65 50.845 23 54.742 23 60c0 5.188 5.528 9.11 11.345 7.716C35.93 70.283 38.761 72 42 72a8.98 8.98 0 0 0 6.97-3.309C51.69 73.642 56.952 77 63 77c6.33 0 11.785-3.686 14.38-9.019C82.725 67.78 87 63.395 87 58z"></path>
  <path fill="#FFF" d="M65.071 39c-5.415 0-10.145 2.879-12.782 7.179A11.437 11.437 0 0 0 45.571 44c-5.243 0-9.658 3.512-11.042 8.31-5.808-1.465-11.458 2.432-11.458 7.69 0 5.188 5.528 9.11 11.345 7.716C36.002 70.283 38.833 72 42.071 72c2.33 0 4.444-.896 6.042-2.348.004-.004.938-.945.94-.94L75 42.765A14.934 14.934 0 0 0 65.071 39z"></path>
</svg>