<svg xmlns="http://www.w3.org/2000/svg" enable-background="new 0 0 32 32" viewBox="0 0 32 32" id="wind">
  <g id="Layer_1">
    <linearGradient id="SVGID_1_" x1="-.03" x2="32.176" y1="16" y2="16" gradientUnits="userSpaceOnUse">
      <stop offset="0" stop-color="#2271d5"></stop>
      <stop offset="1" stop-color="#52baff"></stop>
    </linearGradient>
    <path fill="url(#SVGID_1_)" d="M27.5,20.4c-0.5-0.3-1.1-0.1-1.4,0.4c-0.3,0.5-0.1,1.1,0.4,1.4c0.3,0.2,0.5,0.5,0.5,0.9c0,0.6-0.4,1-1,1
		s-1-0.4-1-1v-6h1c2.2,0,4-1.8,4-4c0-1.1-0.4-2.1-1.2-2.8C28.1,9.4,27.1,9,26,9c0-3.9-3.1-7-7-7c-2.8,0-5.2,1.6-6.3,4
		C12,5.4,11,5,10,5C7.8,5,6,6.8,6,9c-2.2,0-4,1.8-4,4c0,1.1,0.4,2.1,1.2,2.8C3.9,16.6,4.9,17,6,17h1v10c0,0.6-0.4,1-1,1s-1-0.4-1-1
		c0-0.6-0.4-1-1-1s-1,0.4-1,1c0,1.7,1.3,3,3,3s3-1.3,3-3V17h2v6c0,0.6,0.4,1,1,1s1-0.4,1-1v-6h2v12c0,0.6,0.4,1,1,1s1-0.4,1-1V17h2
		v9c0,0.6,0.4,1,1,1s1-0.4,1-1v-9h2v6c0,1.7,1.3,3,3,3s3-1.3,3-3C29,21.9,28.4,20.9,27.5,20.4z M18.1,8.5C17.9,8.8,17.6,9,17.3,9
		c-0.2,0-0.3,0-0.5-0.1c-0.5-0.3-0.6-0.9-0.4-1.4C16.9,6.6,17.9,6,19,6c0.6,0,1,0.4,1,1s-0.4,1-1,1C18.6,8,18.3,8.2,18.1,8.5z"></path>
  </g>
</svg>